<?xml version="1.0" encoding="UTF-8"?>
<svg width="19px" height="18px" viewBox="0 0 19 18" version="1.1" xmlns="http://www.w3.org/2000/svg" xmlns:xlink="http://www.w3.org/1999/xlink">
    <!-- Generator: Sketch 41 (35326) - http://www.bohemiancoding.com/sketch -->
    <title>日历 (2)</title>
    <desc>Created with Sketch.</desc>
    <defs></defs>
    <g id="单个城市_历史数据" stroke="none" stroke-width="1" fill="none" fill-rule="evenodd" opacity="0.564141757">
        <g id="历史数据（MVP）" transform="translate(-308.000000, -198.000000)" fill="#272636">
            <g id="日历-(2)" transform="translate(308.000000, 198.000000)">
                <g id="Group" transform="translate(0.011698, 0.079943)">
                    <path d="M2.90111485,8.89519564 L5.78179276,8.89519564 L5.78179276,7.41342287 L2.90111485,7.41342287 L2.90111485,8.89519564 L2.90111485,8.89519564 Z M14.4237838,1.4863758 L14.4237838,0.00451507121 L12.9834555,0.00451507121 L12.9834555,1.4863758 L5.78177139,1.4863758 L5.78177139,0.00451507121 L4.34135762,0.00451507121 L4.34135762,1.4863758 L0.0203728067,1.4863758 L0.0203728067,17.7858762 L18.7448113,17.7858762 L18.7448113,1.4863758 L14.4237838,1.4863758 L14.4237838,1.4863758 Z M17.3044617,16.3041694 L1.46076521,16.3041694 L1.46076521,2.96806058 L4.34135762,2.96806058 L4.34135762,4.44992131 L5.78177139,4.44992131 L5.78177139,2.96806058 L12.9834555,2.96806058 L12.9834555,4.44992131 L14.4237838,4.44992131 L14.4237838,2.96806058 L17.3044617,2.96806058 L17.3044617,16.3041694 L17.3044617,16.3041694 Z M7.94227448,13.3406019 L10.8228669,13.3406019 L10.8228669,11.8588291 L7.94227448,11.8588291 L7.94227448,13.3406019 L7.94227448,13.3406019 Z M2.90111485,13.3406019 L5.78179276,13.3406019 L5.78179276,11.8588291 L2.90111485,11.8588291 L2.90111485,13.3406019 L2.90111485,13.3406019 Z M12.9834555,8.89519564 L15.8640479,8.89519564 L15.8640479,7.41342287 L12.9834555,7.41342287 L12.9834555,8.89519564 L12.9834555,8.89519564 Z M7.94227448,8.89519564 L10.8228669,8.89519564 L10.8228669,7.41342287 L7.94227448,7.41342287 L7.94227448,8.89519564 L7.94227448,8.89519564 Z M12.9834555,13.3406019 L15.8640479,13.3406019 L15.8640479,11.8588291 L12.9834555,11.8588291 L12.9834555,13.3406019 L12.9834555,13.3406019 Z" id="Shape"></path>
                </g>
            </g>
        </g>
    </g>
</svg>